<?xml version="1.0" encoding="UTF-8"?>
<svg version="1.1" xmlns="http://www.w3.org/2000/svg" width="512" height="512">
<path d="M0 0 C5.80973372 5.55423874 9.90624586 12.34748649 10.10546875 20.515625 C9.69971776 29.64502231 6.5428314 35.85219038 -0.01953125 42.140625 C-14.44966899 54.15377449 -32.71295367 57.02330832 -50.95703125 55.953125 C-65.47815264 54.46530519 -80.69400273 48.55610409 -90.40234375 37.2734375 C-95.10440506 31.2279301 -96.82553769 24.59882924 -95.95703125 16.953125 C-94.3802089 8.19473553 -89.31089803 2.33872386 -82.41015625 -3.02734375 C-58.65598055 -19.12663335 -22.33552733 -18.18467712 0 0 Z " fill="#8DF901" transform="translate(125.95703125,424.046875)"/>
<path d="M0 0 C1.01529785 0.00418945 2.0305957 0.00837891 3.07666016 0.01269531 C10.30224494 0.12162955 16.8692294 0.77214434 23.6875 3.3125 C24.46609375 3.57933594 25.2446875 3.84617187 26.046875 4.12109375 C34.99853549 7.59372066 42.64980075 13.53489293 46.6875 22.3125 C47.1825 23.3025 47.1825 23.3025 47.6875 24.3125 C48.56872183 32.97365171 48.03827323 40.22397565 42.6875 47.3125 C31.41545634 58.65111085 16.42951104 62.55107437 0.875 62.75 C-12.31743358 62.66913352 -24.50449744 60.30362943 -35.3125 52.3125 C-35.97894531 51.838125 -36.64539063 51.36375 -37.33203125 50.875 C-43.25922299 46.28298619 -46.12053486 40.87382356 -47.3125 33.5 C-47.71806323 26.14353364 -45.75045204 20.22311621 -41.015625 14.5703125 C-29.47631282 3.33115584 -15.67454461 -0.08816121 0 0 Z " fill="#8DF902" transform="translate(189.3125,294.6875)"/>
<path d="M0 0 C4.54706904 4.22926314 8.57705384 8.63423896 9.37109375 14.953125 C9.52038843 22.36516671 9.19466808 27.48943994 4 33 C-7.43353166 44.16620088 -20.05053793 46.3125 -35.4152832 46.3125 C-48.58739148 46.12227344 -59.0312348 43.07326596 -69 34 C-74.17304317 28.20582082 -75.48934864 23.42026314 -75.3046875 15.77734375 C-74.53219368 8.73576551 -70.85940705 4.04305255 -65.453125 -0.33203125 C-45.95745916 -13.58784226 -19.41860668 -13.27235044 0 0 Z " fill="#8DF901" transform="translate(327,209)"/>
<path d="M0 0 C4.6138994 2.98677546 7.7935467 5.96082963 9.5625 11.25 C10.49663135 17.02604552 10.49335551 22.40799103 7.625 27.625 C1.34956119 36.09772131 -9.06617788 39.93179542 -19.0625 42 C-32.89275284 43.02446317 -44.58135699 40.78658008 -56.4375 33.25 C-61.54978276 27.55618423 -64.1062723 22.47652624 -63.8515625 14.77734375 C-62.92495415 9.12153617 -59.63682824 5.44932824 -55.6875 1.5 C-38.71489119 -10.25026764 -17.7016142 -9.49969325 0 0 Z " fill="#8DF901" transform="translate(405.4375,129.75)"/>
<path d="M0 0 C3.95169244 3.261972 7.10933284 6.23605936 7.9375 11.515625 C8.13536403 15.64603664 7.8363418 18.51778558 6.125 22.3125 C-1.55853124 30.74564404 -8.93301632 34.59218166 -20.34375 35.40234375 C-32.28078921 35.81888344 -42.06910379 33.92562378 -51.4375 26.125 C-54.93826184 22.18664293 -56.2504329 18.60397246 -56.58984375 13.42578125 C-56.25965345 8.43906104 -54.2125315 4.82319031 -50.6328125 1.3984375 C-36.23961505 -9.97050834 -14.99787151 -10.43807907 0 0 Z " fill="#8DF902" transform="translate(473.4375,59.875)"/>
</svg>
