<?xml version="1.0" encoding="UTF-8"?>
<svg version="1.1" xmlns="http://www.w3.org/2000/svg" width="512" height="512">
<path d="M0 0 C1.0626709 -0.00525696 2.1253418 -0.01051392 3.22021484 -0.01593018 C6.71987772 -0.02909369 10.21908279 -0.02040469 13.71875 -0.01025391 C16.15820401 -0.01227568 18.59765743 -0.01518798 21.03710938 -0.01895142 C26.14458991 -0.02336984 31.25191282 -0.01695901 36.359375 -0.00292969 C42.89966377 0.01416166 49.43958317 0.00431793 55.9798584 -0.01364708 C61.01565321 -0.02449777 66.05136074 -0.02103261 71.0871582 -0.0132637 C73.49845422 -0.01126526 75.90975822 -0.01370843 78.32104492 -0.02070236 C81.69340956 -0.02833773 85.06517954 -0.01668263 88.4375 0 C89.42991699 -0.00607269 90.42233398 -0.01214539 91.44482422 -0.0184021 C98.69556953 0.04790414 104.28548225 1.3209376 109.96875 6.13818359 C110.52046875 6.58677734 111.0721875 7.03537109 111.640625 7.49755859 C116.68223099 13.53750241 116.65598896 19.91762123 116.62280273 27.42895508 C116.62966599 28.5192804 116.63652924 29.60960571 116.64360046 30.73297119 C116.66185191 34.32520696 116.65803319 37.91700531 116.65234375 41.50927734 C116.65690626 44.01359702 116.66221204 46.51791545 116.66822815 49.02223206 C116.67715597 54.2667334 116.67497455 59.51112185 116.66479492 64.75561523 C116.65331655 70.80252582 116.6673904 76.84899274 116.6941914 82.89584488 C116.71908337 88.73232923 116.72151565 94.56864189 116.71507454 100.40516853 C116.71492139 102.87984009 116.72096077 105.35452022 116.73336601 107.82916069 C116.74828195 111.29244648 116.73759322 114.75476167 116.72045898 118.21801758 C116.73496094 119.74332848 116.73496094 119.74332848 116.74975586 121.29945374 C116.66848373 129.16441507 115.02568375 134.58124985 109.40625 140.20068359 C102.29112543 145.08361222 96.90278506 145.82816706 88.4375 145.77636719 C86.84349365 145.78425262 86.84349365 145.78425262 85.21728516 145.79229736 C81.71762228 145.80546087 78.21841721 145.79677188 74.71875 145.78662109 C72.27929599 145.78864287 69.83984257 145.79155517 67.40039062 145.7953186 C62.29291009 145.79973703 57.18558718 145.7933262 52.078125 145.77929688 C45.53783623 145.76220553 38.99791683 145.77204925 32.4576416 145.79001427 C27.42184679 145.80086496 22.38613926 145.7973998 17.3503418 145.78963089 C14.93904578 145.78763245 12.52774178 145.79007561 10.11645508 145.79706955 C6.74409044 145.80470492 3.37232046 145.79304982 0 145.77636719 C-0.99241699 145.78243988 -1.98483398 145.78851257 -3.00732422 145.79476929 C-10.25806953 145.72846305 -15.84798225 144.45542959 -21.53125 139.63818359 C-22.08296875 139.18958984 -22.6346875 138.74099609 -23.203125 138.27880859 C-28.26213848 132.21801026 -28.22265428 125.79305983 -28.20117188 118.25561523 C-28.20964142 117.15553635 -28.21811096 116.05545746 -28.22683716 114.92204285 C-28.25017415 111.29735654 -28.25123011 107.6730955 -28.25 104.04833984 C-28.25710311 101.52159964 -28.26480233 98.99486105 -28.27307129 96.46812439 C-28.28650826 91.17653285 -28.28826997 85.88509746 -28.28222656 80.59350586 C-28.27558601 74.49198869 -28.29845914 68.39107608 -28.33554029 62.28968149 C-28.37001987 56.40088859 -28.37656767 50.512281 -28.37245178 44.62338066 C-28.37414291 42.12636959 -28.38378458 39.62935054 -28.40159607 37.13240242 C-28.42378283 33.63783192 -28.41408361 30.14471292 -28.39648438 26.65014648 C-28.40974762 25.62392181 -28.42301086 24.59769714 -28.43667603 23.54037476 C-28.35902764 16.88936887 -27.04381696 12.55241408 -22.78125 7.38818359 C-15.95927188 0.74573121 -9.08429749 -0.05558767 0 0 Z " fill="#01F800" transform="translate(394.78125,183.61181640625)"/>
<path d="M0 0 C1.0626709 -0.00525696 2.1253418 -0.01051392 3.22021484 -0.01593018 C6.71987772 -0.02909369 10.21908279 -0.02040469 13.71875 -0.01025391 C16.15820401 -0.01227568 18.59765743 -0.01518798 21.03710938 -0.01895142 C26.14458991 -0.02336984 31.25191282 -0.01695901 36.359375 -0.00292969 C42.89966377 0.01416166 49.43958317 0.00431793 55.9798584 -0.01364708 C61.01565321 -0.02449777 66.05136074 -0.02103261 71.0871582 -0.0132637 C73.49845422 -0.01126526 75.90975822 -0.01370843 78.32104492 -0.02070236 C81.69340956 -0.02833773 85.06517954 -0.01668263 88.4375 0 C89.42991699 -0.00607269 90.42233398 -0.01214539 91.44482422 -0.0184021 C98.71653288 0.04809585 104.31014543 1.3100325 109.96875 6.20068359 C110.52046875 6.66087891 111.0721875 7.12107422 111.640625 7.59521484 C116.72721194 13.37428268 116.65467241 19.10222741 116.62280273 26.40722656 C116.62966599 27.50715942 116.63652924 28.60709229 116.64360046 29.74035645 C116.66187716 33.37049326 116.65802922 37.00019821 116.65234375 40.63037109 C116.6569054 43.15854025 116.66221092 45.68670816 116.66822815 48.21487427 C116.67716122 53.51244731 116.6749686 58.80986358 116.66479492 64.10742188 C116.65332195 70.21622607 116.66737906 76.32459081 116.6941914 82.43333709 C116.71908344 88.32693441 116.72151536 94.22039605 116.71507454 100.114048 C116.71492136 102.61383927 116.72096289 105.11363901 116.73336601 107.61339951 C116.7482813 111.11271363 116.73759324 114.61106702 116.72045898 118.11035156 C116.73496094 119.65204514 116.73496094 119.65204514 116.74975586 121.22488403 C116.66895705 129.12504705 115.0523203 134.55461329 109.40625 140.20068359 C102.29112543 145.08361222 96.90278506 145.82816706 88.4375 145.77636719 C86.84349365 145.78425262 86.84349365 145.78425262 85.21728516 145.79229736 C81.71762228 145.80546087 78.21841721 145.79677188 74.71875 145.78662109 C72.27929599 145.78864287 69.83984257 145.79155517 67.40039062 145.7953186 C62.29291009 145.79973703 57.18558718 145.7933262 52.078125 145.77929688 C45.53783623 145.76220553 38.99791683 145.77204925 32.4576416 145.79001427 C27.42184679 145.80086496 22.38613926 145.7973998 17.3503418 145.78963089 C14.93904578 145.78763245 12.52774178 145.79007561 10.11645508 145.79706955 C6.74409044 145.80470492 3.37232046 145.79304982 0 145.77636719 C-0.99241699 145.78243988 -1.98483398 145.78851257 -3.00732422 145.79476929 C-10.25806953 145.72846305 -15.84798225 144.45542959 -21.53125 139.63818359 C-22.08296875 139.18958984 -22.6346875 138.74099609 -23.203125 138.27880859 C-28.24473099 132.23886478 -28.21848896 125.85874596 -28.18530273 118.34741211 C-28.19216599 117.25708679 -28.19902924 116.16676147 -28.20610046 115.043396 C-28.22435191 111.45116023 -28.22053319 107.85936188 -28.21484375 104.26708984 C-28.21940626 101.76277017 -28.22471204 99.25845174 -28.23072815 96.75413513 C-28.23965597 91.50963378 -28.23747455 86.26524534 -28.22729492 81.02075195 C-28.21581655 74.97384136 -28.2298904 68.92737445 -28.2566914 62.88052231 C-28.28158337 57.04403795 -28.28401565 51.2077253 -28.27757454 45.37119865 C-28.27742139 42.8965271 -28.28346077 40.42184697 -28.29586601 37.9472065 C-28.31078195 34.4839207 -28.30009322 31.02160552 -28.28295898 27.55834961 C-28.29262695 26.54147568 -28.30229492 25.52460175 -28.31225586 24.47691345 C-28.23098373 16.61195212 -26.58818375 11.19511734 -20.96875 5.57568359 C-13.85362543 0.69275497 -8.46528506 -0.05179988 0 0 Z " fill="#01F800" transform="translate(30.78125,183.61181640625)"/>
<path d="M0 0 C1.0626709 -0.00525696 2.1253418 -0.01051392 3.22021484 -0.01593018 C6.71987772 -0.02909369 10.21908279 -0.02040469 13.71875 -0.01025391 C16.15820401 -0.01227568 18.59765743 -0.01518798 21.03710938 -0.01895142 C26.14458991 -0.02336984 31.25191282 -0.01695901 36.359375 -0.00292969 C42.89966377 0.01416166 49.43958317 0.00431793 55.9798584 -0.01364708 C61.01565321 -0.02449777 66.05136074 -0.02103261 71.0871582 -0.0132637 C73.49845422 -0.01126526 75.90975822 -0.01370843 78.32104492 -0.02070236 C81.69340956 -0.02833773 85.06517954 -0.01668263 88.4375 0 C89.42991699 -0.00607269 90.42233398 -0.01214539 91.44482422 -0.0184021 C98.69556953 0.04790414 104.28548225 1.3209376 109.96875 6.13818359 C110.52046875 6.58677734 111.0721875 7.03537109 111.640625 7.49755859 C116.68223099 13.53750241 116.65598896 19.91762123 116.62280273 27.42895508 C116.62966599 28.5192804 116.63652924 29.60960571 116.64360046 30.73297119 C116.66185191 34.32520696 116.65803319 37.91700531 116.65234375 41.50927734 C116.65690626 44.01359702 116.66221204 46.51791545 116.66822815 49.02223206 C116.67715597 54.2667334 116.67497455 59.51112185 116.66479492 64.75561523 C116.65331655 70.80252582 116.6673904 76.84899274 116.6941914 82.89584488 C116.71908337 88.73232923 116.72151565 94.56864189 116.71507454 100.40516853 C116.71492139 102.87984009 116.72096077 105.35452022 116.73336601 107.82916069 C116.74828195 111.29244648 116.73759322 114.75476167 116.72045898 118.21801758 C116.73496094 119.74332848 116.73496094 119.74332848 116.74975586 121.29945374 C116.66848373 129.16441507 115.02568375 134.58124985 109.40625 140.20068359 C102.29112543 145.08361222 96.90278506 145.82816706 88.4375 145.77636719 C86.84349365 145.78425262 86.84349365 145.78425262 85.21728516 145.79229736 C81.71762228 145.80546087 78.21841721 145.79677188 74.71875 145.78662109 C72.27929599 145.78864287 69.83984257 145.79155517 67.40039062 145.7953186 C62.29291009 145.79973703 57.18558718 145.7933262 52.078125 145.77929688 C45.53783623 145.76220553 38.99791683 145.77204925 32.4576416 145.79001427 C27.42184679 145.80086496 22.38613926 145.7973998 17.3503418 145.78963089 C14.93904578 145.78763245 12.52774178 145.79007561 10.11645508 145.79706955 C6.74409044 145.80470492 3.37232046 145.79304982 0 145.77636719 C-0.99241699 145.78243988 -1.98483398 145.78851257 -3.00732422 145.79476929 C-10.25806953 145.72846305 -15.84798225 144.45542959 -21.53125 139.63818359 C-22.08296875 139.18958984 -22.6346875 138.74099609 -23.203125 138.27880859 C-28.24473099 132.23886478 -28.21848896 125.85874596 -28.18530273 118.34741211 C-28.19216599 117.25708679 -28.19902924 116.16676147 -28.20610046 115.043396 C-28.22435191 111.45116023 -28.22053319 107.85936188 -28.21484375 104.26708984 C-28.21940626 101.76277017 -28.22471204 99.25845174 -28.23072815 96.75413513 C-28.23965597 91.50963378 -28.23747455 86.26524534 -28.22729492 81.02075195 C-28.21581655 74.97384136 -28.2298904 68.92737445 -28.2566914 62.88052231 C-28.28158337 57.04403795 -28.28401565 51.2077253 -28.27757454 45.37119865 C-28.27742139 42.8965271 -28.28346077 40.42184697 -28.29586601 37.9472065 C-28.31078195 34.4839207 -28.30009322 31.02160552 -28.28295898 27.55834961 C-28.29262695 26.54147568 -28.30229492 25.52460175 -28.31225586 24.47691345 C-28.23098373 16.61195212 -26.58818375 11.19511734 -20.96875 5.57568359 C-13.85362543 0.69275497 -8.46528506 -0.05179988 0 0 Z " fill="#01F800" transform="translate(212.78125,183.61181640625)"/>
<path d="M0 0 C0.95033112 -0.00860046 1.90066223 -0.01720093 2.87979126 -0.02606201 C4.4413797 -0.03245193 4.4413797 -0.03245193 6.03451538 -0.03897095 C7.68134811 -0.05123718 7.68134811 -0.05123718 9.3614502 -0.06375122 C13.00295465 -0.08860823 16.64442007 -0.10512354 20.28598022 -0.11953735 C22.15157152 -0.12752287 22.15157152 -0.12752287 24.05485153 -0.13566971 C29.2843142 -0.15690114 34.51377102 -0.17602979 39.74326515 -0.1872921 C47.22180831 -0.20350681 54.69982993 -0.23662507 62.17817652 -0.29369295 C68.0807983 -0.33718928 73.9833049 -0.35305013 79.88608932 -0.35942459 C82.39066654 -0.36613424 84.89523626 -0.38134866 87.39970779 -0.4053154 C90.91118984 -0.43699721 94.42136493 -0.4369981 97.93295288 -0.42959595 C98.96186646 -0.44600128 99.99078003 -0.46240662 101.0508728 -0.47930908 C107.93766225 -0.42008176 112.78042304 1.06187886 118.37191772 5.15390015 C120.30941772 7.3218689 120.30941772 7.3218689 121.37191772 9.34140015 C121.92879272 10.35266968 121.92879272 10.35266968 122.49691772 11.3843689 C122.93004272 12.26028687 122.93004272 12.26028687 123.37191772 13.15390015 C123.70191772 13.81390015 124.03191772 14.47390015 124.37191772 15.15390015 C124.47460811 16.6538738 124.51568941 18.15827732 124.52581787 19.66172791 C124.53441833 20.61068436 124.5430188 21.55964081 124.55187988 22.53735352 C124.55826981 24.10433487 124.55826981 24.10433487 124.56478882 25.70297241 C124.57705505 27.34958611 124.57705505 27.34958611 124.58956909 29.02946472 C124.61445844 32.67640635 124.63095082 36.32330889 124.64535522 39.9703064 C124.6506789 41.214951 124.65600258 42.4595956 124.66148758 43.74195671 C124.68272787 48.975668 124.70185576 54.20937341 124.71310997 59.44311619 C124.72931926 66.93125355 124.76241433 74.41886951 124.81951082 81.90681034 C124.86300944 87.8142355 124.87886847 93.72154554 124.88524246 99.62913322 C124.89195287 102.13650148 124.90716925 104.64386224 124.93113327 107.15112495 C124.96281659 110.66750513 124.96281557 114.1825802 124.95541382 117.69906616 C124.97181915 118.72955078 124.98822449 119.7600354 125.00512695 120.82174683 C124.94594977 127.71298725 123.46768454 132.55906572 119.37191772 138.15390015 C117.20394897 140.09140015 117.20394897 140.09140015 115.18441772 141.15390015 C114.51023804 141.52515015 113.83605835 141.89640015 113.14144897 142.27890015 C112.26553101 142.71202515 112.26553101 142.71202515 111.37191772 143.15390015 C110.71191772 143.48390015 110.05191772 143.81390015 109.37191772 144.15390015 C107.87194408 144.25659053 106.36754056 144.29767183 104.86408997 144.30780029 C103.91513351 144.31640076 102.96617706 144.32500122 101.98846436 144.3338623 C100.94381012 144.33812225 99.89915588 144.3423822 98.82284546 144.34677124 C97.17623177 144.35903748 97.17623177 144.35903748 95.49635315 144.37155151 C91.84941152 144.39644087 88.20250898 144.41293324 84.55551147 144.42733765 C82.68854457 144.43532316 82.68854457 144.43532316 80.78386116 144.44347 C75.55014987 144.4647103 70.31644446 144.48383818 65.08270168 144.49509239 C57.59456432 144.51130168 50.10694836 144.54439675 42.61900753 144.60149324 C36.71158237 144.64499186 30.80427233 144.66085089 24.89668465 144.66722488 C22.38931639 144.67393529 19.88195564 144.68915167 17.37469292 144.71311569 C13.85831274 144.74479901 10.34323767 144.74479799 6.82675171 144.73739624 C5.79626709 144.75380157 4.76578247 144.77020691 3.70407104 144.78710938 C-3.12782687 144.72844178 -8.15035619 143.35938204 -13.62808228 139.15390015 C-17.69331231 134.7218478 -19.74143277 130.53822795 -19.78198242 124.52581787 C-19.79058289 123.57548676 -19.79918335 122.62515564 -19.80804443 121.64602661 C-19.81443436 120.08443817 -19.81443436 120.08443817 -19.82095337 118.49130249 C-19.82913086 117.393414 -19.83730835 116.29552551 -19.84573364 115.16436768 C-19.87059065 111.52286322 -19.88710596 107.8813978 -19.90151978 104.23983765 C-19.90684345 102.99611012 -19.91216713 101.75238258 -19.91765213 100.47096634 C-19.93888356 95.24150367 -19.95801221 90.01204685 -19.96927452 84.78255272 C-19.98548923 77.30400956 -20.01860749 69.82598794 -20.07567537 62.34764135 C-20.1191717 56.44501957 -20.13503255 50.54251297 -20.14140701 44.63972855 C-20.14811666 42.13515133 -20.16333109 39.63058161 -20.18729782 37.12611008 C-20.21897963 33.61462804 -20.21898052 30.10445294 -20.21157837 26.59286499 C-20.2279837 25.56395142 -20.24438904 24.53503784 -20.2612915 23.47494507 C-20.20257373 16.64740389 -18.82980907 11.62837757 -14.62808228 6.15390015 C-10.19612861 2.08860539 -6.01235262 0.04054927 0 0 Z " fill="#0432FE" transform="translate(386.6280822753906,361.8460998535156)"/>
<path d="M0 0 C0.95033112 -0.00860046 1.90066223 -0.01720093 2.87979126 -0.02606201 C4.4413797 -0.03245193 4.4413797 -0.03245193 6.03451538 -0.03897095 C7.68134811 -0.05123718 7.68134811 -0.05123718 9.3614502 -0.06375122 C13.00295465 -0.08860823 16.64442007 -0.10512354 20.28598022 -0.11953735 C22.15157152 -0.12752287 22.15157152 -0.12752287 24.05485153 -0.13566971 C29.2843142 -0.15690114 34.51377102 -0.17602979 39.74326515 -0.1872921 C47.22180831 -0.20350681 54.69982993 -0.23662507 62.17817652 -0.29369295 C68.0807983 -0.33718928 73.9833049 -0.35305013 79.88608932 -0.35942459 C82.39066654 -0.36613424 84.89523626 -0.38134866 87.39970779 -0.4053154 C90.91118984 -0.43699721 94.42136493 -0.4369981 97.93295288 -0.42959595 C98.96186646 -0.44600128 99.99078003 -0.46240662 101.0508728 -0.47930908 C107.87841398 -0.4205913 112.8974403 0.95217335 118.37191772 5.15390015 C122.43721249 9.58585381 124.48526861 13.76962981 124.52581787 19.78198242 C124.53441833 20.73231354 124.5430188 21.68264465 124.55187988 22.66177368 C124.55826981 24.22336212 124.55826981 24.22336212 124.56478882 25.8164978 C124.57705505 27.46333054 124.57705505 27.46333054 124.58956909 29.14343262 C124.6144261 32.78493707 124.63094141 36.42640249 124.64535522 40.06796265 C124.6506789 41.31169018 124.65600258 42.55541771 124.66148758 43.83683395 C124.68271901 49.06629663 124.70184766 54.29575344 124.71310997 59.52524757 C124.72932468 67.00379074 124.76244294 74.48181235 124.81951082 81.96015894 C124.86300715 87.86278073 124.878868 93.76528732 124.88524246 99.66807175 C124.89195211 102.17264896 124.90716653 104.67721869 124.93113327 107.18169022 C124.96281508 110.69317226 124.96281597 114.20334736 124.95541382 117.7149353 C124.97181915 118.74384888 124.98822449 119.77276245 125.00512695 120.83285522 C124.94589963 127.71964468 123.46393901 132.56240546 119.37191772 138.15390015 C117.20394897 140.09140015 117.20394897 140.09140015 115.18441772 141.15390015 C114.51023804 141.52515015 113.83605835 141.89640015 113.14144897 142.27890015 C112.26553101 142.71202515 112.26553101 142.71202515 111.37191772 143.15390015 C110.71191772 143.48390015 110.05191772 143.81390015 109.37191772 144.15390015 C107.87194408 144.25659053 106.36754056 144.29767183 104.86408997 144.30780029 C103.91513351 144.31640076 102.96617706 144.32500122 101.98846436 144.3338623 C100.94381012 144.33812225 99.89915588 144.3423822 98.82284546 144.34677124 C97.17623177 144.35903748 97.17623177 144.35903748 95.49635315 144.37155151 C91.84941152 144.39644087 88.20250898 144.41293324 84.55551147 144.42733765 C82.68854457 144.43532316 82.68854457 144.43532316 80.78386116 144.44347 C75.55014987 144.4647103 70.31644446 144.48383818 65.08270168 144.49509239 C57.59456432 144.51130168 50.10694836 144.54439675 42.61900753 144.60149324 C36.71158237 144.64499186 30.80427233 144.66085089 24.89668465 144.66722488 C22.38931639 144.67393529 19.88195564 144.68915167 17.37469292 144.71311569 C13.85831274 144.74479901 10.34323767 144.74479799 6.82675171 144.73739624 C5.79626709 144.75380157 4.76578247 144.77020691 3.70407104 144.78710938 C-3.18716938 144.72793219 -8.03324785 143.24966696 -13.62808228 139.15390015 C-15.56558228 136.9859314 -15.56558228 136.9859314 -16.62808228 134.96640015 C-16.99933228 134.29222046 -17.37058228 133.61804077 -17.75308228 132.9234314 C-18.04183228 132.33948608 -18.33058228 131.75554077 -18.62808228 131.15390015 C-18.95808228 130.49390015 -19.28808228 129.83390015 -19.62808228 129.15390015 C-19.73077266 127.6539265 -19.77185396 126.14952298 -19.78198242 124.64607239 C-19.79058289 123.69711594 -19.79918335 122.74815948 -19.80804443 121.77044678 C-19.81230438 120.72579254 -19.81656433 119.68113831 -19.82095337 118.60482788 C-19.82913086 117.50708542 -19.83730835 116.40934296 -19.84573364 115.27833557 C-19.87062299 111.63139394 -19.88711537 107.98449141 -19.90151978 104.3374939 C-19.90684345 103.09284929 -19.91216713 101.84820469 -19.91765213 100.56584358 C-19.93889242 95.33213229 -19.95802031 90.09842688 -19.96927452 84.8646841 C-19.98548381 77.37654674 -20.01857888 69.88893078 -20.07567537 62.40098995 C-20.11917399 56.49356479 -20.13503302 50.58625475 -20.14140701 44.67866707 C-20.14811742 42.17129881 -20.1633338 39.66393806 -20.18729782 37.15667534 C-20.21898114 33.64029516 -20.21898012 30.12522009 -20.21157837 26.60873413 C-20.2279837 25.57824951 -20.24438904 24.54776489 -20.2612915 23.48605347 C-20.20262391 16.65415555 -18.83356417 11.63162623 -14.62808228 6.15390015 C-10.19602993 2.08867011 -6.01241008 0.04054965 0 0 Z " fill="#0432FE" transform="translate(22.628082275390625,361.8460998535156)"/>
<path d="M0 0 C0.95033112 -0.00860046 1.90066223 -0.01720093 2.87979126 -0.02606201 C4.4413797 -0.03245193 4.4413797 -0.03245193 6.03451538 -0.03897095 C7.68134811 -0.05123718 7.68134811 -0.05123718 9.3614502 -0.06375122 C13.00295465 -0.08860823 16.64442007 -0.10512354 20.28598022 -0.11953735 C22.15157152 -0.12752287 22.15157152 -0.12752287 24.05485153 -0.13566971 C29.2843142 -0.15690114 34.51377102 -0.17602979 39.74326515 -0.1872921 C47.22180831 -0.20350681 54.69982993 -0.23662507 62.17817652 -0.29369295 C68.0807983 -0.33718928 73.9833049 -0.35305013 79.88608932 -0.35942459 C82.39066654 -0.36613424 84.89523626 -0.38134866 87.39970779 -0.4053154 C90.91118984 -0.43699721 94.42136493 -0.4369981 97.93295288 -0.42959595 C98.96186646 -0.44600128 99.99078003 -0.46240662 101.0508728 -0.47930908 C107.93766225 -0.42008176 112.78042304 1.06187886 118.37191772 5.15390015 C120.30941772 7.3218689 120.30941772 7.3218689 121.37191772 9.34140015 C121.92879272 10.35266968 121.92879272 10.35266968 122.49691772 11.3843689 C122.93004272 12.26028687 122.93004272 12.26028687 123.37191772 13.15390015 C123.70191772 13.81390015 124.03191772 14.47390015 124.37191772 15.15390015 C124.47460811 16.6538738 124.51568941 18.15827732 124.52581787 19.66172791 C124.53441833 20.61068436 124.5430188 21.55964081 124.55187988 22.53735352 C124.55826981 24.10433487 124.55826981 24.10433487 124.56478882 25.70297241 C124.57705505 27.34958611 124.57705505 27.34958611 124.58956909 29.02946472 C124.61445844 32.67640635 124.63095082 36.32330889 124.64535522 39.9703064 C124.6506789 41.214951 124.65600258 42.4595956 124.66148758 43.74195671 C124.68272787 48.975668 124.70185576 54.20937341 124.71310997 59.44311619 C124.72931926 66.93125355 124.76241433 74.41886951 124.81951082 81.90681034 C124.86300944 87.8142355 124.87886847 93.72154554 124.88524246 99.62913322 C124.89195287 102.13650148 124.90716925 104.64386224 124.93113327 107.15112495 C124.96281659 110.66750513 124.96281557 114.1825802 124.95541382 117.69906616 C124.97181915 118.72955078 124.98822449 119.7600354 125.00512695 120.82174683 C124.94594977 127.71298725 123.46768454 132.55906572 119.37191772 138.15390015 C117.20394897 140.09140015 117.20394897 140.09140015 115.18441772 141.15390015 C114.51023804 141.52515015 113.83605835 141.89640015 113.14144897 142.27890015 C112.26553101 142.71202515 112.26553101 142.71202515 111.37191772 143.15390015 C110.71191772 143.48390015 110.05191772 143.81390015 109.37191772 144.15390015 C107.87194408 144.25659053 106.36754056 144.29767183 104.86408997 144.30780029 C103.91513351 144.31640076 102.96617706 144.32500122 101.98846436 144.3338623 C100.94381012 144.33812225 99.89915588 144.3423822 98.82284546 144.34677124 C97.17623177 144.35903748 97.17623177 144.35903748 95.49635315 144.37155151 C91.84941152 144.39644087 88.20250898 144.41293324 84.55551147 144.42733765 C82.68854457 144.43532316 82.68854457 144.43532316 80.78386116 144.44347 C75.55014987 144.4647103 70.31644446 144.48383818 65.08270168 144.49509239 C57.59456432 144.51130168 50.10694836 144.54439675 42.61900753 144.60149324 C36.71158237 144.64499186 30.80427233 144.66085089 24.89668465 144.66722488 C22.38931639 144.67393529 19.88195564 144.68915167 17.37469292 144.71311569 C13.85831274 144.74479901 10.34323767 144.74479799 6.82675171 144.73739624 C5.79626709 144.75380157 4.76578247 144.77020691 3.70407104 144.78710938 C-3.18716938 144.72793219 -8.03324785 143.24966696 -13.62808228 139.15390015 C-15.56558228 136.9859314 -15.56558228 136.9859314 -16.62808228 134.96640015 C-16.99933228 134.29222046 -17.37058228 133.61804077 -17.75308228 132.9234314 C-18.04183228 132.33948608 -18.33058228 131.75554077 -18.62808228 131.15390015 C-18.95808228 130.49390015 -19.28808228 129.83390015 -19.62808228 129.15390015 C-19.73077266 127.6539265 -19.77185396 126.14952298 -19.78198242 124.64607239 C-19.79058289 123.69711594 -19.79918335 122.74815948 -19.80804443 121.77044678 C-19.81230438 120.72579254 -19.81656433 119.68113831 -19.82095337 118.60482788 C-19.82913086 117.50708542 -19.83730835 116.40934296 -19.84573364 115.27833557 C-19.87062299 111.63139394 -19.88711537 107.98449141 -19.90151978 104.3374939 C-19.90684345 103.09284929 -19.91216713 101.84820469 -19.91765213 100.56584358 C-19.93889242 95.33213229 -19.95802031 90.09842688 -19.96927452 84.8646841 C-19.98548381 77.37654674 -20.01857888 69.88893078 -20.07567537 62.40098995 C-20.11917399 56.49356479 -20.13503302 50.58625475 -20.14140701 44.67866707 C-20.14811742 42.17129881 -20.1633338 39.66393806 -20.18729782 37.15667534 C-20.21898114 33.64029516 -20.21898012 30.12522009 -20.21157837 26.60873413 C-20.2279837 25.57824951 -20.24438904 24.54776489 -20.2612915 23.48605347 C-20.20262391 16.65415555 -18.83356417 11.63162623 -14.62808228 6.15390015 C-10.19602993 2.08867011 -6.01241008 0.04054965 0 0 Z " fill="#0432FE" transform="translate(204.62808227539063,361.8460998535156)"/>
<path d="M0 0 C0.95177628 -0.0071553 1.90355255 -0.01431061 2.88417053 -0.02168274 C3.92680054 -0.02437164 4.96943054 -0.02706055 6.0436554 -0.02983093 C7.14315018 -0.03640213 8.24264496 -0.04297333 9.37545776 -0.04974365 C13.02177496 -0.06948796 16.66805093 -0.08114227 20.31440735 -0.09111023 C21.55938303 -0.09518576 22.80435871 -0.09926128 24.08706093 -0.10346031 C29.99773531 -0.12217461 35.90839659 -0.13673856 41.81909341 -0.14507228 C48.62964125 -0.15483449 55.43986321 -0.18112848 62.25029629 -0.22157317 C68.15826988 -0.25544741 74.06616423 -0.26722357 79.97423744 -0.27127647 C82.482417 -0.27614571 84.990593 -0.2877692 87.49870872 -0.30631447 C91.01265193 -0.33068033 94.52574719 -0.32974489 98.03974915 -0.32279968 C99.072258 -0.33560974 100.10476685 -0.3484198 101.16856384 -0.36161804 C108.05078147 -0.31214079 113.70550578 0.75130914 118.88686657 5.55915356 C122.78076581 9.94850891 124.60646665 14.18785626 124.63934326 20.01576233 C124.64931839 20.96884277 124.65929352 21.92192322 124.66957092 22.90388489 C124.6702356 23.9377533 124.67090027 24.9716217 124.67158508 26.03681946 C124.6799086 27.135 124.68823212 28.23318054 124.69680786 29.36463928 C124.72090384 32.99531094 124.72968002 36.62580287 124.73628235 40.25654602 C124.74524961 42.7837479 124.75437147 45.31094924 124.76364136 47.83815002 C124.78013329 53.13746259 124.78786465 58.43670797 124.79072571 63.73603821 C124.79435673 69.844287 124.82422497 75.95203204 124.86613029 82.06012702 C124.90513024 87.9531626 124.91632074 93.84604831 124.91745186 99.73921967 C124.92165107 102.23820475 124.93407319 104.73719037 124.95496941 107.23609161 C124.98191816 110.73781778 124.97704628 114.23816646 124.96455383 117.73994446 C124.98680527 119.27860168 124.98680527 119.27860168 125.00950623 120.8483429 C124.94093774 127.62088658 123.62145219 132.75754191 119.3651886 138.14717102 C114.17052026 142.3426764 109.44482489 144.26267349 102.76197815 144.28761292 C101.84248383 144.29332306 100.9229895 144.2990332 99.97563171 144.30491638 C98.97399994 144.30603424 97.97236816 144.3071521 96.94038391 144.30830383 C95.87975739 144.31326874 94.81913086 144.31823364 93.72636414 144.323349 C90.2153407 144.33796123 86.70436246 144.34477133 83.1933136 144.35029602 C80.75196837 144.35604853 78.31062316 144.36180626 75.86927795 144.36756897 C70.74812103 144.37807649 65.62697979 144.3839207 60.5058136 144.3874054 C53.95100071 144.39288754 47.3963958 144.41691089 40.8416481 144.44537735 C35.79725035 144.46402265 30.7529025 144.46921036 25.70847321 144.47074127 C23.29241042 144.47376437 20.87634844 144.48178128 18.46031952 144.49492645 C15.07591032 144.51202495 11.69200656 144.51009705 8.30757141 144.50361633 C7.31403656 144.51283112 6.32050171 144.5220459 5.29685974 144.53153992 C-1.86689217 144.48867662 -7.19152628 143.26009598 -13.3848114 139.45967102 C-19.56081624 133.1121105 -20.21995733 126.45168246 -20.15238953 117.90107727 C-20.1593988 116.80085236 -20.16640808 115.70062744 -20.17362976 114.56706238 C-20.19116548 110.94767153 -20.17960192 107.32906917 -20.1660614 103.70967102 C-20.16875756 101.18436026 -20.17264102 98.65905051 -20.17765808 96.13374329 C-20.18354715 90.84809903 -20.17539332 85.56265796 -20.15629578 80.27705383 C-20.13453008 74.18295986 -20.14158272 68.08940134 -20.1636014 61.99532032 C-20.1840029 56.11129496 -20.18176436 50.22747164 -20.17007446 44.34342957 C-20.16741151 41.84922714 -20.17066168 39.35501098 -20.17999268 36.86082458 C-20.19018335 33.37127299 -20.17462017 29.88274072 -20.15238953 26.39326477 C-20.16048645 25.36861115 -20.16858337 24.34395752 -20.17692566 23.28825378 C-20.09194872 16.06589679 -18.79362599 10.34236352 -13.59965515 5.08857727 C-12.93063171 4.63353821 -12.26160828 4.17849915 -11.5723114 3.70967102 C-10.90070984 3.23658508 -10.22910828 2.76349915 -9.53715515 2.27607727 C-6.31433287 0.36356056 -3.66358575 0.01891952 0 0 Z " fill="#0432FE" transform="translate(386.6348114013672,4.8528289794921875)"/>
<path d="M0 0 C0.95177628 -0.0071553 1.90355255 -0.01431061 2.88417053 -0.02168274 C3.92680054 -0.02437164 4.96943054 -0.02706055 6.0436554 -0.02983093 C7.14315018 -0.03640213 8.24264496 -0.04297333 9.37545776 -0.04974365 C13.02177496 -0.06948796 16.66805093 -0.08114227 20.31440735 -0.09111023 C21.55938303 -0.09518576 22.80435871 -0.09926128 24.08706093 -0.10346031 C29.99773531 -0.12217461 35.90839659 -0.13673856 41.81909341 -0.14507228 C48.62964125 -0.15483449 55.43986321 -0.18112848 62.25029629 -0.22157317 C68.15826988 -0.25544741 74.06616423 -0.26722357 79.97423744 -0.27127647 C82.482417 -0.27614571 84.990593 -0.2877692 87.49870872 -0.30631447 C91.01265193 -0.33068033 94.52574719 -0.32974489 98.03974915 -0.32279968 C99.072258 -0.33560974 100.10476685 -0.3484198 101.16856384 -0.36161804 C108.42617735 -0.30944201 114.1438999 0.96255733 119.42378235 6.18232727 C119.87882141 6.85135071 120.33386047 7.52037415 120.8026886 8.20967102 C121.27577454 8.88127258 121.74886047 9.55287415 122.23628235 10.24482727 C124.14619461 13.46326074 124.49441221 16.11639463 124.51908875 19.7752533 C124.52768921 20.72558441 124.53628967 21.67591553 124.54515076 22.65504456 C124.55154068 24.216633 124.55154068 24.216633 124.55805969 25.80976868 C124.57032593 27.45660141 124.57032593 27.45660141 124.58283997 29.13670349 C124.60769698 32.77820795 124.62421228 36.41967336 124.6386261 40.06123352 C124.64394978 41.30496105 124.64927345 42.54868858 124.65475845 43.83010483 C124.67598988 49.0595675 124.69511853 54.28902432 124.70638084 59.51851845 C124.72259555 66.99706161 124.75571381 74.47508322 124.81278169 81.95342982 C124.85627802 87.8560516 124.87213887 93.7585582 124.87851334 99.66134262 C124.88522299 102.16591984 124.90043741 104.67048956 124.92440414 107.17496109 C124.95608595 110.68644313 124.95608685 114.19661823 124.94868469 117.70820618 C124.96509003 118.73711975 124.98149536 119.76603333 124.99839783 120.8261261 C124.94005377 127.61021188 123.63190755 132.74959175 119.3651886 138.14717102 C114.17021652 142.34248658 109.44503233 144.26267272 102.76197815 144.28761292 C101.84248383 144.29332306 100.9229895 144.2990332 99.97563171 144.30491638 C98.97399994 144.30603424 97.97236816 144.3071521 96.94038391 144.30830383 C95.87975739 144.31326874 94.81913086 144.31823364 93.72636414 144.323349 C90.2153407 144.33796123 86.70436246 144.34477133 83.1933136 144.35029602 C80.75196837 144.35604853 78.31062316 144.36180626 75.86927795 144.36756897 C70.74812103 144.37807649 65.62697979 144.3839207 60.5058136 144.3874054 C53.95100071 144.39288754 47.3963958 144.41691089 40.8416481 144.44537735 C35.79725035 144.46402265 30.7529025 144.46921036 25.70847321 144.47074127 C23.29241042 144.47376437 20.87634844 144.48178128 18.46031952 144.49492645 C15.07591032 144.51202495 11.69200656 144.51009705 8.30757141 144.50361633 C7.31403656 144.51283112 6.32050171 144.5220459 5.29685974 144.53153992 C-1.86689217 144.48867662 -7.19152628 143.26009598 -13.3848114 139.45967102 C-19.56081624 133.1121105 -20.21995733 126.45168246 -20.15238953 117.90107727 C-20.1593988 116.80085236 -20.16640808 115.70062744 -20.17362976 114.56706238 C-20.19116548 110.94767153 -20.17960192 107.32906917 -20.1660614 103.70967102 C-20.16875756 101.18436026 -20.17264102 98.65905051 -20.17765808 96.13374329 C-20.18354715 90.84809903 -20.17539332 85.56265796 -20.15629578 80.27705383 C-20.13453008 74.18295986 -20.14158272 68.08940134 -20.1636014 61.99532032 C-20.1840029 56.11129496 -20.18176436 50.22747164 -20.17007446 44.34342957 C-20.16741151 41.84922714 -20.17066168 39.35501098 -20.17999268 36.86082458 C-20.19018335 33.37127299 -20.17462017 29.88274072 -20.15238953 26.39326477 C-20.16048645 25.36861115 -20.16858337 24.34395752 -20.17692566 23.28825378 C-20.09194872 16.06589679 -18.79362599 10.34236352 -13.59965515 5.08857727 C-12.93063171 4.63353821 -12.26160828 4.17849915 -11.5723114 3.70967102 C-10.90070984 3.23658508 -10.22910828 2.76349915 -9.53715515 2.27607727 C-6.31433287 0.36356056 -3.66358575 0.01891952 0 0 Z " fill="#0432FE" transform="translate(22.634811401367188,4.8528289794921875)"/>
<path d="M0 0 C0.95177628 -0.0071553 1.90355255 -0.01431061 2.88417053 -0.02168274 C3.92680054 -0.02437164 4.96943054 -0.02706055 6.0436554 -0.02983093 C7.14315018 -0.03640213 8.24264496 -0.04297333 9.37545776 -0.04974365 C13.02177496 -0.06948796 16.66805093 -0.08114227 20.31440735 -0.09111023 C21.55938303 -0.09518576 22.80435871 -0.09926128 24.08706093 -0.10346031 C29.99773531 -0.12217461 35.90839659 -0.13673856 41.81909341 -0.14507228 C48.62964125 -0.15483449 55.43986321 -0.18112848 62.25029629 -0.22157317 C68.15826988 -0.25544741 74.06616423 -0.26722357 79.97423744 -0.27127647 C82.482417 -0.27614571 84.990593 -0.2877692 87.49870872 -0.30631447 C91.01265193 -0.33068033 94.52574719 -0.32974489 98.03974915 -0.32279968 C99.072258 -0.33560974 100.10476685 -0.3484198 101.16856384 -0.36161804 C108.05078147 -0.31214079 113.70550578 0.75130914 118.88686657 5.55915356 C122.78076581 9.94850891 124.60646665 14.18785626 124.63934326 20.01576233 C124.64931839 20.96884277 124.65929352 21.92192322 124.66957092 22.90388489 C124.6702356 23.9377533 124.67090027 24.9716217 124.67158508 26.03681946 C124.6799086 27.135 124.68823212 28.23318054 124.69680786 29.36463928 C124.72090384 32.99531094 124.72968002 36.62580287 124.73628235 40.25654602 C124.74524961 42.7837479 124.75437147 45.31094924 124.76364136 47.83815002 C124.78013329 53.13746259 124.78786465 58.43670797 124.79072571 63.73603821 C124.79435673 69.844287 124.82422497 75.95203204 124.86613029 82.06012702 C124.90513024 87.9531626 124.91632074 93.84604831 124.91745186 99.73921967 C124.92165107 102.23820475 124.93407319 104.73719037 124.95496941 107.23609161 C124.98191816 110.73781778 124.97704628 114.23816646 124.96455383 117.73994446 C124.98680527 119.27860168 124.98680527 119.27860168 125.00950623 120.8483429 C124.94093774 127.62088658 123.62145219 132.75754191 119.3651886 138.14717102 C114.17052026 142.3426764 109.44482489 144.26267349 102.76197815 144.28761292 C101.84248383 144.29332306 100.9229895 144.2990332 99.97563171 144.30491638 C98.97399994 144.30603424 97.97236816 144.3071521 96.94038391 144.30830383 C95.87975739 144.31326874 94.81913086 144.31823364 93.72636414 144.323349 C90.2153407 144.33796123 86.70436246 144.34477133 83.1933136 144.35029602 C80.75196837 144.35604853 78.31062316 144.36180626 75.86927795 144.36756897 C70.74812103 144.37807649 65.62697979 144.3839207 60.5058136 144.3874054 C53.95100071 144.39288754 47.3963958 144.41691089 40.8416481 144.44537735 C35.79725035 144.46402265 30.7529025 144.46921036 25.70847321 144.47074127 C23.29241042 144.47376437 20.87634844 144.48178128 18.46031952 144.49492645 C15.07591032 144.51202495 11.69200656 144.51009705 8.30757141 144.50361633 C7.31403656 144.51283112 6.32050171 144.5220459 5.29685974 144.53153992 C-1.86689217 144.48867662 -7.19152628 143.26009598 -13.3848114 139.45967102 C-19.56081624 133.1121105 -20.21995733 126.45168246 -20.15238953 117.90107727 C-20.1593988 116.80085236 -20.16640808 115.70062744 -20.17362976 114.56706238 C-20.19116548 110.94767153 -20.17960192 107.32906917 -20.1660614 103.70967102 C-20.16875756 101.18436026 -20.17264102 98.65905051 -20.17765808 96.13374329 C-20.18354715 90.84809903 -20.17539332 85.56265796 -20.15629578 80.27705383 C-20.13453008 74.18295986 -20.14158272 68.08940134 -20.1636014 61.99532032 C-20.1840029 56.11129496 -20.18176436 50.22747164 -20.17007446 44.34342957 C-20.16741151 41.84922714 -20.17066168 39.35501098 -20.17999268 36.86082458 C-20.19018335 33.37127299 -20.17462017 29.88274072 -20.15238953 26.39326477 C-20.16048645 25.36861115 -20.16858337 24.34395752 -20.17692566 23.28825378 C-20.09194872 16.06589679 -18.79362599 10.34236352 -13.59965515 5.08857727 C-12.93063171 4.63353821 -12.26160828 4.17849915 -11.5723114 3.70967102 C-10.90070984 3.23658508 -10.22910828 2.76349915 -9.53715515 2.27607727 C-6.31433287 0.36356056 -3.66358575 0.01891952 0 0 Z " fill="#0432FE" transform="translate(204.6348114013672,4.8528289794921875)"/>
</svg>
