<?xml version="1.0" encoding="UTF-8"?>
<svg version="1.1" xmlns="http://www.w3.org/2000/svg" width="458" height="458">
<path d="M0 0 C0.99 0 1.98 0 3 0 C3.84531245 4.40074531 4.12862501 8.56444521 4.1328125 13.04296875 C4.13376923 13.69324539 4.13472595 14.34352203 4.13571167 15.01350403 C4.13638783 16.37741188 4.13457318 17.74132306 4.13037109 19.10522461 C4.12498848 21.19196754 4.13034853 23.27849782 4.13671875 25.36523438 C4.13542969 26.68201172 4.13414062 27.99878906 4.1328125 29.35546875 C4.13168457 30.55840576 4.13055664 31.76134277 4.12939453 33.00073242 C4 36 4 36 3 39 C2.77820215 40.89212737 2.59385985 42.78884472 2.4375 44.6875 C2.35371094 45.68136719 2.26992187 46.67523438 2.18359375 47.69921875 C2.12300781 48.45847656 2.06242188 49.21773437 2 50 C2.66 50 3.32 50 4 50 C4 51.98 4 53.96 4 56 C3.34 56 2.68 56 2 56 C2.14224587 58.52108103 2.28870121 61.04180403 2.4375 63.5625 C2.49647461 64.61920898 2.49647461 64.61920898 2.55664062 65.69726562 C2.76379369 69.15512832 3.05277218 72.54248202 3.59765625 75.96484375 C3.73042969 76.96644531 3.86320313 77.96804687 4 79 C3.505 79.495 3.505 79.495 3 80 C2.90100477 81.54955559 2.86920476 83.10353673 2.8671875 84.65625 C2.86589844 85.59597656 2.86460937 86.53570312 2.86328125 87.50390625 C2.86714844 88.49261719 2.87101563 89.48132813 2.875 90.5 C2.87113281 91.48871094 2.86726562 92.47742188 2.86328125 93.49609375 C2.86521484 94.90568359 2.86521484 94.90568359 2.8671875 96.34375 C2.86831543 97.21193359 2.86944336 98.08011719 2.87060547 98.97460938 C2.7758463 100.99604154 2.7758463 100.99604154 4 102 C4.125 105.5 4.125 105.5 4 109 C3.505 109.495 3.505 109.495 3 110 C2.58707043 114.29982588 2.48311446 118.62209171 2.3125 122.9375 C2.25255859 124.15630859 2.19261719 125.37511719 2.13085938 126.63085938 C2.0602832 128.37399414 2.0602832 128.37399414 1.98828125 130.15234375 C1.94227783 131.22476318 1.89627441 132.29718262 1.84887695 133.40209961 C1.72069282 136.16392587 1.72069282 136.16392587 4 138 C4.265625 140.05859375 4.265625 140.05859375 4.25 142.4375 C4.25515625 143.21996094 4.2603125 144.00242188 4.265625 144.80859375 C4 147 4 147 2 150 C1.80468817 152.49538502 1.71981721 154.87626103 1.734375 157.37109375 C1.73150482 158.44920067 1.73150482 158.44920067 1.72857666 159.54908752 C1.72721683 161.06796621 1.7308992 162.5868566 1.73925781 164.10571289 C1.74994499 166.42556011 1.73936424 168.74463022 1.7265625 171.06445312 C1.72788444 172.54166837 1.73044754 174.01888313 1.734375 175.49609375 C1.73032654 176.18787216 1.72627808 176.87965057 1.72210693 177.59239197 C1.75781832 181.27833775 2.1151054 183.8270634 4 187 C4.265625 189.4375 4.265625 189.4375 4.25 192 C4.25515625 192.845625 4.2603125 193.69125 4.265625 194.5625 C4 197 4 197 3.00927734 198.84814453 C1.84560574 201.32918021 1.68756151 203.13584673 1.5859375 205.8671875 C1.54702393 206.82536377 1.50811035 207.78354004 1.46801758 208.77075195 C1.43732178 209.79515381 1.40662598 210.81955566 1.375 211.875 C1.33850342 212.92969482 1.30200684 213.98438965 1.2644043 215.07104492 C1.02858203 222.48315402 0.87343645 229.89690672 0.8125 237.3125 C0.79944824 238.24239746 0.78639648 239.17229492 0.77294922 240.13037109 C0.77182129 240.99098145 0.77069336 241.8515918 0.76953125 242.73828125 C0.76336792 243.86810425 0.76336792 243.86810425 0.75708008 245.02075195 C0.88884976 247.31991785 0.88884976 247.31991785 3 250 C3.25878906 251.91357422 3.25878906 251.91357422 3.265625 254.0546875 C3.26820313 254.83457031 3.27078125 255.61445313 3.2734375 256.41796875 C3.26570312 257.22878906 3.25796875 258.03960937 3.25 258.875 C3.25773438 259.67808594 3.26546875 260.48117187 3.2734375 261.30859375 C3.27085937 262.09105469 3.26828125 262.87351562 3.265625 263.6796875 C3.26336914 264.38851074 3.26111328 265.09733398 3.25878906 265.82763672 C3 268 3 268 2.00949097 270.10688782 C0.68975283 273.88914105 0.64734065 277.50181583 0.58935547 281.4621582 C0.56955627 282.3016954 0.54975708 283.1412326 0.52935791 284.00621033 C0.46636998 286.77095402 0.41671042 289.53576635 0.3671875 292.30078125 C0.32602741 294.22179411 0.28403391 296.14278929 0.24124146 298.06376648 C0.13101655 303.11225025 0.03210325 308.16089454 -0.06445312 313.20965576 C-0.16504187 318.36452469 -0.27633097 323.51916138 -0.38671875 328.67382812 C-0.60161673 338.78235354 -0.80456494 348.89108087 -1 359 C-4.3 359 -7.6 359 -11 359 C-11.06944934 349.41308212 -10.8910731 339.85741762 -10.56847763 330.27736855 C-10.46306385 327.11442546 -10.3657124 323.95124798 -10.2677784 320.78806591 C-10.08638492 314.9314793 -9.90172859 309.07504122 -9.70361328 303.21899414 C-9.56497087 299.11177496 -9.43641258 295.00434857 -9.31460953 290.89659691 C-9.26651395 289.33873707 -9.21465046 287.78098877 -9.15893173 286.22338295 C-9.08189776 284.05835705 -9.01771659 281.89330694 -8.95654297 279.7277832 C-8.91657196 278.49759964 -8.87660095 277.26741608 -8.8354187 275.99995422 C-8.7551551 272.81662146 -8.7551551 272.81662146 -11 270 C-11.22376316 267.0620188 -11.32437104 264.24939504 -11.3125 261.3125 C-11.32861328 260.53455078 -11.34472656 259.75660156 -11.36132812 258.95507812 C-11.36197266 258.18228516 -11.36261719 257.40949219 -11.36328125 256.61328125 C-11.36626221 255.92016846 -11.36924316 255.22705566 -11.37231445 254.51293945 C-11 252 -11 252 -9.51367188 248.33959961 C-7.64119851 243.55058371 -7.49078878 239.05197491 -7.41796875 233.953125 C-7.3952742 233.01950134 -7.37257965 232.08587769 -7.34919739 231.1239624 C-7.3048615 229.1643265 -7.26742276 227.20452349 -7.23657227 225.24462891 C-7.18740842 222.24441138 -7.11188127 219.24566733 -7.03320312 216.24609375 C-6.9932296 214.33596955 -6.9547652 212.42581304 -6.91796875 210.515625 C-6.89518356 209.62079407 -6.87239838 208.72596313 -6.84892273 207.80401611 C-6.83843399 206.96924744 -6.82794525 206.13447876 -6.81713867 205.27441406 C-6.80398117 204.54353577 -6.79082367 203.81265747 -6.77726746 203.05963135 C-7.03554703 200.67129288 -7.87296419 199.10301375 -9 197 C-9.23046875 194.78125 -9.23046875 194.78125 -9.1875 192.5 C-9.18105469 191.7471875 -9.17460937 190.994375 -9.16796875 190.21875 C-9.00303563 188.04009857 -8.59600906 186.09795189 -8 184 C-7.34 184 -6.68 184 -6 184 C-5.97528262 179.21281308 -5.95713175 174.4256633 -5.94506836 169.63842773 C-5.94003935 168.00984042 -5.93321535 166.38125763 -5.92456055 164.75268555 C-5.91243231 162.41193528 -5.90675737 160.0712447 -5.90234375 157.73046875 C-5.89718246 157.00224411 -5.89202118 156.27401947 -5.88670349 155.52372742 C-5.88635721 152.40397712 -6.00544396 149.98366812 -7 147 C-7.16796875 145.0625 -7.16796875 145.0625 -7.1875 143 C-7.20167969 142.319375 -7.21585938 141.63875 -7.23046875 140.9375 C-7 139 -7 139 -5 136 C-4.84032812 133.32526523 -4.79170294 130.75758158 -4.83984375 128.0859375 C-4.84504532 127.31569244 -4.85024689 126.54544739 -4.85560608 125.75186157 C-4.87341649 123.29271571 -4.90460145 120.83398672 -4.9375 118.375 C-4.96507681 115.90891339 -4.9897738 113.44288375 -5.00868225 110.97671509 C-5.02098344 109.44197318 -5.03862938 107.90726346 -5.06199646 106.37265015 C-5.07892397 104.58172753 -5.04466115 102.79044568 -5 101 C-4.505 100.505 -4.505 100.505 -4 100 C-3.92462986 98.01173563 -3.91688253 96.02083558 -3.9375 94.03125 C-3.94523438 92.82082031 -3.95296875 91.61039062 -3.9609375 90.36328125 C-3.98027344 88.45095703 -3.98027344 88.45095703 -4 86.5 C-4.02538296 83.98962521 -4.04645877 81.47920186 -4.0625 78.96875 C-4.07410156 77.84919922 -4.08570313 76.72964844 -4.09765625 75.57617188 C-4 73 -4 73 -3 72 C-2.92485463 70.51738193 -2.9168438 69.03125248 -2.9375 67.546875 C-2.94579834 66.62318115 -2.95409668 65.6994873 -2.96264648 64.74780273 C-2.97497314 63.75852783 -2.9872998 62.76925293 -3 61.75 C-3.05840832 54.28397204 -2.93727872 46.98486936 -2.12109375 39.55859375 C-1.99371858 36.86727967 -2.45118774 34.62415272 -3 32 C-2.67 31.67 -2.34 31.34 -2 31 C-1.97911476 28.49377098 -2.00634257 26.00462156 -2.0625 23.5 C-2.14467019 17.34819165 -1.7017912 11.95626922 0 6 C-0.66 6 -1.32 6 -2 6 C-1.49396008 3.83125748 -1.00016187 2.00032373 0 0 Z " fill="#909100" transform="translate(234,53)"/>
<path d="M0 0 C2.64 0 5.28 0 8 0 C8.13079881 28.68518563 7.86310288 57.32707948 7 86 C3.7 86 0.4 86 -3 86 C-3.05621724 76.04275658 -2.89223706 66.10472083 -2.59765625 56.15234375 C-2.5551561 54.68217628 -2.51271238 53.21200718 -2.47032166 51.74183655 C-2.38183035 48.69218506 -2.29165996 45.64258859 -2.20043945 42.59301758 C-2.08406054 38.69293988 -1.97354816 34.79271902 -1.86443424 30.89243221 C-1.7789709 27.87001285 -1.6896488 24.8477165 -1.59924126 21.82544136 C-1.55681025 20.38662241 -1.51575112 18.94776229 -1.4761219 17.50886345 C-1.42049856 15.50440919 -1.35893514 13.50012245 -1.29711914 11.49584961 C-1.26380997 10.35893173 -1.23050079 9.22201385 -1.19618225 8.05064392 C-1.01761585 5.27392739 -0.6225234 2.7077035 0 0 Z " fill="#919000" transform="translate(226,326)"/>
<path d="M0 0 C2.02186033 3.03279049 2.25474783 3.64780252 2.265625 7.0546875 C2.26820313 7.83457031 2.27078125 8.61445313 2.2734375 9.41796875 C2.26570312 10.22878906 2.25796875 11.03960937 2.25 11.875 C2.25773438 12.67808594 2.26546875 13.48117187 2.2734375 14.30859375 C2.25912723 18.65176129 2.01711034 22.04582338 0 26 C-6.35227273 27.22159091 -6.35227273 27.22159091 -9.375 26.1875 C-11 25 -11 25 -12 23 C-12.12494039 20.03048651 -12.18517631 17.09467605 -12.1875 14.125 C-12.19974609 13.30902344 -12.21199219 12.49304688 -12.22460938 11.65234375 C-12.22654297 10.86214844 -12.22847656 10.07195312 -12.23046875 9.2578125 C-12.23457764 8.5373877 -12.23868652 7.81696289 -12.24291992 7.07470703 C-11.95635362 4.62722921 -11.34648864 3.06190706 -10 1 C-6.457201 -0.180933 -3.71640139 -0.27028374 0 0 Z " fill="#05F600" transform="translate(235,300)"/>
<path d="M0 0 C2.31 0.33 4.62 0.66 7 1 C7.13553629 16.69927268 6.83168492 32.32185453 6 48 C3.36 48 0.72 48 -2 48 C-1.88056589 42.93192303 -1.75625789 37.86399597 -1.62768555 32.79614258 C-1.58472143 31.07677347 -1.54302463 29.35737215 -1.50268555 27.63793945 C-1.28493712 18.39304032 -1.05667594 9.196322 0 0 Z " fill="#909100" transform="translate(228,253)"/>
<path d="M0 0 C2.90015179 0.10000523 4.16183677 1.12863948 6.4375 2.9375 C11.77938128 9.32169958 15.25540591 16.53511852 15 25 C14.67 25.66 14.34 26.32 14 27 C11.8125 27.3125 11.8125 27.3125 9 27 C3.19304559 22.64478419 0.25340113 15.76020339 -2 9 C-2.1875 5.4375 -2.1875 5.4375 -2 2 C-1.34 1.34 -0.68 0.68 0 0 Z " fill="#0432FE" transform="translate(404,320)"/>
<path d="M0 0 C2.05371724 4.10743447 1.40410656 7.73234622 0.05859375 11.953125 C-2.18779339 17.67120136 -4.18293671 22.1195879 -9 26 C-9.33 26.33 -9.66 26.66 -10 27 C-11.66617115 27.04063832 -13.33388095 27.042721 -15 27 C-16.77892978 23.44214044 -16.31515283 20.00790813 -15.15234375 16.2890625 C-7.72434018 0 -7.72434018 0 0 0 Z " fill="#0432FE" transform="translate(58,321)"/>
<path d="M0 0 C1.9926543 2.98229469 2.2715794 5.46097844 2.25 9 C2.25515625 9.845625 2.2603125 10.69125 2.265625 11.5625 C2 14 2 14 0 18 C-2.97 18 -5.94 18 -9 18 C-10.82686874 14.34626252 -11.25892618 13.29208105 -11.1875 9.5 C-11.18105469 8.7471875 -11.17460937 7.994375 -11.16796875 7.21875 C-11.0010863 5.01434927 -10.69218414 3.09932164 -10 1 C-6.68789534 -1.5760814 -3.8916928 -1.18442824 0 0 Z " fill="#06F600" transform="translate(236,236)"/>
<path d="M0 0 C0 11.22 0 22.44 0 34 C-2.31 34 -4.62 34 -7 34 C-6.67 23.11 -6.34 12.22 -6 1 C-1 0 -1 0 0 0 Z " fill="#919000" transform="translate(235,202)"/>
<path d="M0 0 C4.58946013 3.09086091 6.43999605 6.98136702 7.52734375 12.36328125 C7.77269844 14.25553729 7.92655376 16.15925265 8.0625 18.0625 C5.375 18.875 5.375 18.875 2.0625 19.0625 C-2.58355712 15.71301696 -4.6039342 11.49201791 -5.9375 6.0625 C-6.125 2.5625 -6.125 2.5625 -5.9375 0.0625 C-2.9375 -0.9375 -2.9375 -0.9375 0 0 Z " fill="#0432FE" transform="translate(386.9375,265.9375)"/>
<path d="M0 0 C0.7342166 6.75479274 -1.72408048 11.18524285 -5 17 C-5.66 17 -6.32 17 -7 17 C-7 17.66 -7 18.32 -7 19 C-8.98 19 -10.96 19 -13 19 C-14.1233244 15.71643636 -14.24383906 13.61141735 -12.953125 10.375 C-11.69157319 7.88024586 -10.38639349 5.42738791 -9 3 C-8.34 3 -7.68 3 -7 3 C-6.67 2.01 -6.34 1.02 -6 0 C-3 -1 -3 -1 0 0 Z " fill="#0432FE" transform="translate(82,267)"/>
<path d="M0 0 C3.5 -0.3125 3.5 -0.3125 7 0 C9.41486943 2.41486943 9.2961925 3.12707789 9.3125 6.4375 C9.32925781 7.21996094 9.34601563 8.00242188 9.36328125 8.80859375 C8.91223873 11.52939865 8.22656877 12.40378403 6 14 C2.3125 14.1875 2.3125 14.1875 -1 14 C-1.8814688 11.35559361 -2.16174818 9.71939248 -2.1875 7 C-2.20167969 6.319375 -2.21585938 5.63875 -2.23046875 4.9375 C-2 3 -2 3 0 0 Z " fill="#06F600" transform="translate(229,189)"/>
<path d="M0 0 C3.30805073 0.27567089 4.74110843 0.75590223 7.1875 3.0625 C9.49688432 6.80529528 10.29832438 9.64961113 11 14 C10.01 15.485 10.01 15.485 9 17 C5.57822164 16.38896815 3.43578024 15.51435379 1 13 C-0.40070439 10.08232721 -1.54365756 7.21109252 -2 4 C-1.0703125 1.71484375 -1.0703125 1.71484375 0 0 Z " fill="#0432FE" transform="translate(366,222)"/>
<path d="M0 0 C1.65 0.33 3.3 0.66 5 1 C4.60369144 6.74647406 4.00868456 10.55794413 0 15 C-3.1875 15.9375 -3.1875 15.9375 -6 16 C-6.33 15.67 -6.66 15.34 -7 15 C-6.88046519 8.06698073 -4.90344924 4.79848244 0 0 Z " fill="#0432FE" transform="translate(95,224)"/>
<path d="M0 0 C1.2065625 0.0309375 1.2065625 0.0309375 2.4375 0.0625 C2.94227602 5.36264818 1.64567314 7.88215318 -1.5625 12.0625 C-2.5625 13.0625 -2.5625 13.0625 -5.125 13.125 C-5.929375 13.104375 -6.73375 13.08375 -7.5625 13.0625 C-8.06727602 7.76235182 -6.77067314 5.24284682 -3.5625 1.0625 C-2.5625 0.0625 -2.5625 0.0625 0 0 Z " fill="#0432FE" transform="translate(111.5625,189.9375)"/>
<path d="M0 0 C3.4456166 1.93290687 4.26111075 3.75023045 5.5625 7.4375 C5.25 10.3125 5.25 10.3125 4.5625 12.4375 C0.05030488 12.80335366 0.05030488 12.80335366 -2.0625 11.21875 C-3.77691089 8.99780862 -3.92376797 7.52700197 -4.125 4.75 C-4.19074219 3.94175781 -4.25648438 3.13351563 -4.32421875 2.30078125 C-4.36160156 1.68589844 -4.39898437 1.07101563 -4.4375 0.4375 C-2.4375 -0.5625 -2.4375 -0.5625 0 0 Z " fill="#0432FE" transform="translate(356.4375,188.5625)"/>
<path d="M0 0 C0.99 0 1.98 0 3 0 C3.88277755 4.51815281 4.10589503 8.77512694 4.0625 13.375 C4.05347656 14.62023437 4.04445312 15.86546875 4.03515625 17.1484375 C4.02355469 18.08945313 4.01195312 19.03046875 4 20 C2.02 20 0.04 20 -2 20 C-1.85795259 18.41632253 -1.71119847 16.83306682 -1.5625 15.25 C-1.48128906 14.36828125 -1.40007812 13.4865625 -1.31640625 12.578125 C-1.03761535 10.30649548 -0.61209423 8.20148177 0 6 C-0.66 6 -1.32 6 -2 6 C-1.49396008 3.83125748 -1.00016187 2.00032373 0 0 Z " fill="#909100" transform="translate(234,53)"/>
<path d="M0 0 C6.72 0.72 6.72 0.72 8 2 C8.1875 5.4375 8.1875 5.4375 8 9 C6 11 6 11 2.9375 11.1875 C0 11 0 11 -1 10 C-1.0979057 8.50261876 -1.12974864 7.00057108 -1.125 5.5 C-1.12757813 4.6853125 -1.13015625 3.870625 -1.1328125 3.03125 C-1 1 -1 1 0 0 Z " fill="#07F500" transform="translate(230,153)"/>
<path d="M0 0 C4.75 0.875 4.75 0.875 7 2 C7.59355614 4.64860427 7.74209269 7.29197322 8 10 C6.68 10.33 5.36 10.66 4 11 C0.38860104 7.21243523 0.38860104 7.21243523 -1 5 C-0.8125 2.125 -0.8125 2.125 0 0 Z " fill="#0432FE" transform="translate(342,161)"/>
<path d="M0 0 C0.763125 0.0825 1.52625 0.165 2.3125 0.25 C3.3125 3.25 3.3125 3.25 2.1875 6.375 C0.3125 9.25 0.3125 9.25 -2.3125 10.1875 C-3.09625 10.208125 -3.88 10.22875 -4.6875 10.25 C-5.6875 9.25 -5.6875 9.25 -5.9375 6.9375 C-5.54632538 2.73237287 -4.38595887 0.40799617 0 0 Z " fill="#0432FE" transform="translate(122.6875,162.75)"/>
<path d="M0 0 C1.4540625 0.0309375 1.4540625 0.0309375 2.9375 0.0625 C3.2675 2.3725 3.5975 4.6825 3.9375 7.0625 C0.9375 9.0625 0.9375 9.0625 -1.75 8.6875 C-2.513125 8.48125 -3.27625 8.275 -4.0625 8.0625 C-4.10491723 5.72955225 -4.10342937 3.39547433 -4.0625 1.0625 C-3.0625 0.0625 -3.0625 0.0625 0 0 Z " fill="#07F500" transform="translate(234.0625,124.9375)"/>
<path d="M0 0 C1.32 0 2.64 0 4 0 C4 5.28 4 10.56 4 16 C2.68 16 1.36 16 0 16 C0 10.72 0 5.44 0 0 Z " fill="#919000" transform="translate(232,109)"/>
<path d="M0 0 C2.875 0.1875 2.875 0.1875 6 1 C7.4375 3.375 7.4375 3.375 8 6 C7.67 6.99 7.34 7.98 7 9 C4.6875 8.8125 4.6875 8.8125 2 8 C0.125 5.625 0.125 5.625 -1 3 C-0.67 2.01 -0.34 1.02 0 0 Z " fill="#0432FE" transform="translate(333,138)"/>
<path d="M0 0 C0.99 0.33 1.98 0.66 3 1 C2.125 7.875 2.125 7.875 1 9 C-0.66617115 9.04063832 -2.33388095 9.042721 -4 9 C-4.33 8.01 -4.66 7.02 -5 6 C-2.66666667 1.33333333 -2.66666667 1.33333333 0 0 Z " fill="#0432FE" transform="translate(132,139)"/>
<path d="M0 0 C0 1.98 0 3.96 0 6 C-4.75 7.125 -4.75 7.125 -7 6 C-7 4.02 -7 2.04 -7 0 C-4.3333581 -1.33332095 -2.83319697 -0.67102033 0 0 Z " fill="#09F300" transform="translate(238,103)"/>
<path d="M0 0 C1.32 0 2.64 0 4 0 C3.67 3.96 3.34 7.92 3 12 C1.68 12.33 0.36 12.66 -1 13 C-0.67 8.71 -0.34 4.42 0 0 Z " fill="#919000" transform="translate(233,90)"/>
<path d="M0 0 C2.86724686 0.57344937 3.8614515 0.8614515 6 3 C6.125 5.625 6.125 5.625 6 8 C2 8 2 8 0.1875 6.25 C-1 4 -1 4 -0.6875 1.75 C-0.460625 1.1725 -0.23375 0.595 0 0 Z " fill="#0432FE" transform="translate(326,118)"/>
<path d="M0 0 C-0.33 2.31 -0.66 4.62 -1 7 C-2.65 7.33 -4.3 7.66 -6 8 C-6.75 6.25 -6.75 6.25 -7 4 C-4.66754091 1.00112403 -3.88153854 0 0 0 Z " fill="#0432FE" transform="translate(143,120)"/>
<path d="M0 0 C1.4540625 0.0309375 1.4540625 0.0309375 2.9375 0.0625 C2.980221 1.72861905 2.97813832 3.39632885 2.9375 5.0625 C1.9375 6.0625 1.9375 6.0625 -0.625 6.125 C-1.8315625 6.0940625 -1.8315625 6.0940625 -3.0625 6.0625 C-3.44468767 4.40635343 -3.77645102 2.73792976 -4.0625 1.0625 C-3.0625 0.0625 -3.0625 0.0625 0 0 Z " fill="#09F400" transform="translate(235.0625,83.9375)"/>
<path d="M0 0 C2.97 0.495 2.97 0.495 6 1 C6 2.98 6 4.96 6 7 C4.35 6.67 2.7 6.34 1 6 C0.67 4.02 0.34 2.04 0 0 Z " fill="#0432FE" transform="translate(319,102)"/>
<path d="M0 0 C0.99 0.33 1.98 0.66 3 1 C2.67 2.65 2.34 4.3 2 6 C0.35 6.33 -1.3 6.66 -3 7 C-2.625 4.0625 -2.625 4.0625 -2 1 C-1.34 0.67 -0.68 0.34 0 0 Z " fill="#0432FE" transform="translate(147,103)"/>
<path d="M0 0 C1.98 0 3.96 0 6 0 C6 1.65 6 3.3 6 5 C4.02 5 2.04 5 0 5 C0 3.35 0 1.7 0 0 Z " fill="#09F400" transform="translate(232,68)"/>
<path d="M0 0 C0.99 0 1.98 0 3 0 C3.33 1.98 3.66 3.96 4 6 C2.02 6 0.04 6 -2 6 C-1.49396008 3.83125748 -1.00016187 2.00032373 0 0 Z " fill="#20E300" transform="translate(234,53)"/>
<path d="M0 0 C1.32 0 2.64 0 4 0 C3.67 1.65 3.34 3.3 3 5 C1.68 5.33 0.36 5.66 -1 6 C-1.33 5.01 -1.66 4.02 -2 3 C-1.34 2.01 -0.68 1.02 0 0 Z " fill="#0432FE" transform="translate(152,89)"/>
<path d="M0 0 C1.67542976 0.28604898 3.34385343 0.61781233 5 1 C5.33 1.99 5.66 2.98 6 4 C4.02 4.99 4.02 4.99 2 6 C1.01 4.35 0.02 2.7 -1 1 C-0.67 0.67 -0.34 0.34 0 0 Z " fill="#0432FE" transform="translate(314,88)"/>
<path d="M0 0 C1.65 0 3.3 0 5 0 C4.67 1.32 4.34 2.64 4 4 C2.35 4.33 0.7 4.66 -1 5 C-0.67 3.35 -0.34 1.7 0 0 Z " fill="#0432FE" transform="translate(157,77)"/>
<path d="M0 0 C1.32 0 2.64 0 4 0 C4.33 1.65 4.66 3.3 5 5 C3.35 4.67 1.7 4.34 0 4 C0 2.68 0 1.36 0 0 Z " fill="#0432FE" transform="translate(309,75)"/>
<path d="M0 0 C0.99 0 1.98 0 3 0 C2.67 1.65 2.34 3.3 2 5 C1.01 5.33 0.02 5.66 -1 6 C-1.625 4.125 -1.625 4.125 -2 2 C-1.34 1.34 -0.68 0.68 0 0 Z " fill="#0432FE" transform="translate(163,65)"/>
<path d="M0 0 C2.0625 0.4375 2.0625 0.4375 4 1 C4 2.32 4 3.64 4 5 C2.0625 4.6875 2.0625 4.6875 0 4 C-0.33 3.01 -0.66 2.02 -1 1 C-0.67 0.67 -0.34 0.34 0 0 Z " fill="#0432FE" transform="translate(305,64)"/>
<path d="M0 0 C1.32 0.33 2.64 0.66 4 1 C4 2.32 4 3.64 4 5 C2.68 4.67 1.36 4.34 0 4 C0 2.68 0 1.36 0 0 Z " fill="#0432FE" transform="translate(301,54)"/>
<path d="M0 0 C1.32 0 2.64 0 4 0 C4 0.99 4 1.98 4 3 C2.68 3.33 1.36 3.66 0 4 C0 2.68 0 1.36 0 0 Z " fill="#0432FE" transform="translate(166,56)"/>
</svg>
